<mxfile host="app.diagrams.net" modified="2022-09-25T16:27:10.476Z" agent="5.0 (Macintosh)" etag="HXN0YvdW_8iKigr88AsA" version="20.3.6" type="github">
  <diagram id="QmlQBhIYwJw1mIavMcAx" name="Page-1">
    <mxGraphModel dx="1796" dy="526" grid="1" gridSize="10" guides="1" tooltips="1" connect="1" arrows="1" fold="1" page="1" pageScale="1" pageWidth="850" pageHeight="1100" math="0" shadow="0">
      <root>
        <mxCell id="0" />
        <mxCell id="1" parent="0" />
        <mxCell id="riMyX0msE-alBqGIp-w9-9" value="" style="rounded=1;whiteSpace=wrap;html=1;fillColor=#f5f5f5;strokeColor=#666666;fontColor=#333333;" vertex="1" parent="1">
          <mxGeometry y="320" width="160" height="220" as="geometry" />
        </mxCell>
        <mxCell id="vAlPWBbDWoFCUTtDWhU5-1" value="Customer" style="ellipse;shape=cloud;whiteSpace=wrap;html=1;fillColor=#dae8fc;strokeColor=#6c8ebf;" parent="1" vertex="1">
          <mxGeometry x="388" y="40" width="105" height="70" as="geometry" />
        </mxCell>
        <mxCell id="vAlPWBbDWoFCUTtDWhU5-5" value="Search Service" style="rounded=1;whiteSpace=wrap;html=1;fillColor=#fff2cc;strokeColor=#d6b656;" parent="1" vertex="1">
          <mxGeometry x="680" y="360" width="120" height="60" as="geometry" />
        </mxCell>
        <mxCell id="vAlPWBbDWoFCUTtDWhU5-8" value="" style="endArrow=classic;html=1;rounded=0;entryX=0.5;entryY=0;entryDx=0;entryDy=0;edgeStyle=orthogonalEdgeStyle;" parent="1" source="riMyX0msE-alBqGIp-w9-1" target="vAlPWBbDWoFCUTtDWhU5-5" edge="1">
          <mxGeometry width="50" height="50" relative="1" as="geometry">
            <mxPoint x="445" y="260" as="sourcePoint" />
            <mxPoint x="430" y="260" as="targetPoint" />
          </mxGeometry>
        </mxCell>
        <mxCell id="vAlPWBbDWoFCUTtDWhU5-10" value="&lt;div&gt;Elastic Search Cluster &lt;br&gt;&lt;/div&gt;&lt;div&gt;- Flight_Available_Seats doc/index&lt;br&gt;&lt;/div&gt;" style="outlineConnect=0;dashed=0;verticalLabelPosition=bottom;verticalAlign=top;align=center;html=1;shape=mxgraph.aws3.elasticsearch_service;fillColor=#F58534;gradientColor=none;" parent="1" vertex="1">
          <mxGeometry x="700" y="580" width="67.5" height="81" as="geometry" />
        </mxCell>
        <mxCell id="vAlPWBbDWoFCUTtDWhU5-16" value="" style="endArrow=classic;html=1;rounded=0;exitX=0.55;exitY=0.95;exitDx=0;exitDy=0;exitPerimeter=0;entryX=0.5;entryY=0;entryDx=0;entryDy=0;entryPerimeter=0;" parent="1" source="vAlPWBbDWoFCUTtDWhU5-1" target="riMyX0msE-alBqGIp-w9-1" edge="1">
          <mxGeometry width="50" height="50" relative="1" as="geometry">
            <mxPoint x="380" y="290" as="sourcePoint" />
            <mxPoint x="445" y="180" as="targetPoint" />
          </mxGeometry>
        </mxCell>
        <mxCell id="vAlPWBbDWoFCUTtDWhU5-22" value="" style="endArrow=classic;html=1;rounded=0;exitX=0.45;exitY=0.983;exitDx=0;exitDy=0;exitPerimeter=0;edgeStyle=orthogonalEdgeStyle;" parent="1" source="vAlPWBbDWoFCUTtDWhU5-5" target="vAlPWBbDWoFCUTtDWhU5-10" edge="1">
          <mxGeometry width="50" height="50" relative="1" as="geometry">
            <mxPoint x="490" y="410" as="sourcePoint" />
            <mxPoint x="502.85678380768786" y="520.2594791328637" as="targetPoint" />
          </mxGeometry>
        </mxCell>
        <mxCell id="vAlPWBbDWoFCUTtDWhU5-24" value="New flight onboarding" style="rounded=1;whiteSpace=wrap;html=1;fillColor=#fff2cc;strokeColor=#d6b656;" parent="1" vertex="1">
          <mxGeometry x="-180" y="340" width="120" height="60" as="geometry" />
        </mxCell>
        <mxCell id="vAlPWBbDWoFCUTtDWhU5-25" value="Update &quot;Flight_Available_Seats&quot; Index Topic" style="sketch=0;points=[[0,0,0],[0.25,0,0],[0.5,0,0],[0.75,0,0],[1,0,0],[0,1,0],[0.25,1,0],[0.5,1,0],[0.75,1,0],[1,1,0],[0,0.25,0],[0,0.5,0],[0,0.75,0],[1,0.25,0],[1,0.5,0],[1,0.75,0]];outlineConnect=0;fontColor=#232F3E;gradientColor=#945DF2;gradientDirection=north;fillColor=#5A30B5;strokeColor=#ffffff;dashed=0;verticalLabelPosition=bottom;verticalAlign=top;align=center;html=1;fontSize=12;fontStyle=0;aspect=fixed;shape=mxgraph.aws4.resourceIcon;resIcon=mxgraph.aws4.managed_streaming_for_kafka;" parent="1" vertex="1">
          <mxGeometry x="42" y="693" width="78" height="78" as="geometry" />
        </mxCell>
        <mxCell id="vAlPWBbDWoFCUTtDWhU5-26" value="" style="endArrow=classic;html=1;rounded=0;exitX=0.5;exitY=1;exitDx=0;exitDy=0;entryX=0;entryY=0.5;entryDx=0;entryDy=0;entryPerimeter=0;edgeStyle=orthogonalEdgeStyle;" parent="1" source="vAlPWBbDWoFCUTtDWhU5-24" target="vAlPWBbDWoFCUTtDWhU5-25" edge="1">
          <mxGeometry width="50" height="50" relative="1" as="geometry">
            <mxPoint x="220" y="650" as="sourcePoint" />
            <mxPoint x="270" y="600" as="targetPoint" />
          </mxGeometry>
        </mxCell>
        <mxCell id="vAlPWBbDWoFCUTtDWhU5-28" value="Update &quot;Flight_Available_Seats&quot; Index" style="rounded=1;whiteSpace=wrap;html=1;fillColor=#fff2cc;strokeColor=#d6b656;" parent="1" vertex="1">
          <mxGeometry x="380" y="702" width="150" height="60" as="geometry" />
        </mxCell>
        <mxCell id="vAlPWBbDWoFCUTtDWhU5-36" value="" style="endArrow=classic;html=1;rounded=0;exitX=0;exitY=0.5;exitDx=0;exitDy=0;entryX=1;entryY=0.5;entryDx=0;entryDy=0;entryPerimeter=0;" parent="1" source="vAlPWBbDWoFCUTtDWhU5-28" target="vAlPWBbDWoFCUTtDWhU5-25" edge="1">
          <mxGeometry width="50" height="50" relative="1" as="geometry">
            <mxPoint x="290" y="820" as="sourcePoint" />
            <mxPoint x="340" y="770" as="targetPoint" />
          </mxGeometry>
        </mxCell>
        <mxCell id="vAlPWBbDWoFCUTtDWhU5-37" value="Listening" style="text;html=1;strokeColor=none;fillColor=none;align=center;verticalAlign=middle;whiteSpace=wrap;rounded=0;" parent="1" vertex="1">
          <mxGeometry x="140" y="702" width="60" height="30" as="geometry" />
        </mxCell>
        <mxCell id="vAlPWBbDWoFCUTtDWhU5-38" value="" style="endArrow=classic;html=1;rounded=0;exitX=1;exitY=0.5;exitDx=0;exitDy=0;edgeStyle=orthogonalEdgeStyle;" parent="1" source="vAlPWBbDWoFCUTtDWhU5-28" target="vAlPWBbDWoFCUTtDWhU5-10" edge="1">
          <mxGeometry width="50" height="50" relative="1" as="geometry">
            <mxPoint x="290" y="810" as="sourcePoint" />
            <mxPoint x="340" y="760" as="targetPoint" />
          </mxGeometry>
        </mxCell>
        <mxCell id="ZmsU_r1sI4WWfwPW7TTX-3" value="api/search?date=date1&amp;amp;source=X&amp;amp;destination=Y" style="text;html=1;strokeColor=none;fillColor=none;align=center;verticalAlign=middle;whiteSpace=wrap;rounded=0;" parent="1" vertex="1">
          <mxGeometry x="750" y="280" width="230" height="30" as="geometry" />
        </mxCell>
        <mxCell id="ZmsU_r1sI4WWfwPW7TTX-5" value="Book service &amp;amp; Payment" style="rounded=1;whiteSpace=wrap;html=1;fillColor=#fff2cc;strokeColor=#d6b656;" parent="1" vertex="1">
          <mxGeometry x="20" y="350" width="120" height="60" as="geometry" />
        </mxCell>
        <mxCell id="ZmsU_r1sI4WWfwPW7TTX-6" value="" style="endArrow=classic;html=1;rounded=0;entryX=0.5;entryY=0;entryDx=0;entryDy=0;entryPerimeter=0;exitX=0.5;exitY=1;exitDx=0;exitDy=0;" parent="1" source="riMyX0msE-alBqGIp-w9-7" target="vAlPWBbDWoFCUTtDWhU5-25" edge="1">
          <mxGeometry width="50" height="50" relative="1" as="geometry">
            <mxPoint x="70" y="520" as="sourcePoint" />
            <mxPoint x="150" y="540" as="targetPoint" />
          </mxGeometry>
        </mxCell>
        <mxCell id="ZmsU_r1sI4WWfwPW7TTX-7" value="" style="endArrow=classic;html=1;rounded=0;entryX=0.5;entryY=0;entryDx=0;entryDy=0;edgeStyle=orthogonalEdgeStyle;" parent="1" source="riMyX0msE-alBqGIp-w9-1" target="ZmsU_r1sI4WWfwPW7TTX-5" edge="1">
          <mxGeometry width="50" height="50" relative="1" as="geometry">
            <mxPoint x="390" y="220" as="sourcePoint" />
            <mxPoint x="150" y="250" as="targetPoint" />
          </mxGeometry>
        </mxCell>
        <mxCell id="ZmsU_r1sI4WWfwPW7TTX-9" value="Admin/Airline Portal" style="ellipse;shape=cloud;whiteSpace=wrap;html=1;fillColor=#dae8fc;strokeColor=#6c8ebf;" parent="1" vertex="1">
          <mxGeometry x="-178" y="50" width="105" height="70" as="geometry" />
        </mxCell>
        <mxCell id="ZmsU_r1sI4WWfwPW7TTX-10" value="" style="endArrow=classic;html=1;rounded=0;exitX=0.55;exitY=0.95;exitDx=0;exitDy=0;exitPerimeter=0;entryX=0.5;entryY=0;entryDx=0;entryDy=0;" parent="1" source="ZmsU_r1sI4WWfwPW7TTX-9" target="vAlPWBbDWoFCUTtDWhU5-24" edge="1">
          <mxGeometry width="50" height="50" relative="1" as="geometry">
            <mxPoint x="140" y="280" as="sourcePoint" />
            <mxPoint x="190" y="230" as="targetPoint" />
          </mxGeometry>
        </mxCell>
        <mxCell id="ZmsU_r1sI4WWfwPW7TTX-11" value="Update Price Service" style="rounded=1;whiteSpace=wrap;html=1;fillColor=#fff2cc;strokeColor=#d6b656;" parent="1" vertex="1">
          <mxGeometry x="-320" y="340" width="120" height="60" as="geometry" />
        </mxCell>
        <mxCell id="ZmsU_r1sI4WWfwPW7TTX-12" value="" style="endArrow=classic;html=1;rounded=0;exitX=0.16;exitY=0.55;exitDx=0;exitDy=0;exitPerimeter=0;entryX=0.5;entryY=0;entryDx=0;entryDy=0;edgeStyle=orthogonalEdgeStyle;" parent="1" source="ZmsU_r1sI4WWfwPW7TTX-9" target="ZmsU_r1sI4WWfwPW7TTX-11" edge="1">
          <mxGeometry width="50" height="50" relative="1" as="geometry">
            <mxPoint x="-110.25" y="126.5" as="sourcePoint" />
            <mxPoint x="-110" y="350" as="targetPoint" />
          </mxGeometry>
        </mxCell>
        <mxCell id="ZmsU_r1sI4WWfwPW7TTX-13" value="" style="endArrow=classic;html=1;rounded=0;exitX=0.45;exitY=1.017;exitDx=0;exitDy=0;exitPerimeter=0;entryX=0;entryY=0.75;entryDx=0;entryDy=0;entryPerimeter=0;edgeStyle=orthogonalEdgeStyle;" parent="1" source="ZmsU_r1sI4WWfwPW7TTX-11" target="vAlPWBbDWoFCUTtDWhU5-25" edge="1">
          <mxGeometry width="50" height="50" relative="1" as="geometry">
            <mxPoint x="40" y="570" as="sourcePoint" />
            <mxPoint x="90" y="520" as="targetPoint" />
          </mxGeometry>
        </mxCell>
        <mxCell id="riMyX0msE-alBqGIp-w9-1" value="API Gateway" style="outlineConnect=0;dashed=0;verticalLabelPosition=bottom;verticalAlign=top;align=center;html=1;shape=mxgraph.aws3.api_gateway;fillColor=#D9A741;gradientColor=none;" vertex="1" parent="1">
          <mxGeometry x="406.75" y="160" width="76.5" height="93" as="geometry" />
        </mxCell>
        <mxCell id="riMyX0msE-alBqGIp-w9-4" value="&lt;div&gt;GET /flights/_search&lt;/div&gt;&lt;div&gt;- query: date, source, destination&lt;/div&gt;&lt;div&gt;- sort: fare, flight duration&lt;br&gt;&lt;/div&gt;" style="text;html=1;strokeColor=none;fillColor=none;align=center;verticalAlign=middle;whiteSpace=wrap;rounded=0;" vertex="1" parent="1">
          <mxGeometry x="730" y="500" width="200" height="40" as="geometry" />
        </mxCell>
        <mxCell id="riMyX0msE-alBqGIp-w9-5" value="Flights_Available_Seats" style="swimlane;childLayout=stackLayout;horizontal=1;startSize=30;horizontalStack=0;rounded=1;fontSize=14;fontStyle=0;strokeWidth=2;resizeParent=0;resizeLast=1;shadow=0;dashed=0;align=center;" vertex="1" parent="1">
          <mxGeometry x="850" y="640" width="160" height="248" as="geometry">
            <mxRectangle x="483.25" y="642" width="190" height="30" as="alternateBounds" />
          </mxGeometry>
        </mxCell>
        <mxCell id="riMyX0msE-alBqGIp-w9-6" value="- Long Flight_Schedule_At&#xa;- List&lt;Seats&gt; SeatIds&#xa;- Int availableSeatCounts&#xa;- Date startDate&#xa;- Date endDate&#xa;- Time duration&#xa;- DateTime startTime&#xa;- DateTime endTime&#xa;- String sourceAirportId&#xa;- String destinationAirportId&#xa;- Double fare" style="align=left;strokeColor=none;fillColor=none;spacingLeft=4;fontSize=12;verticalAlign=top;resizable=0;rotatable=0;part=1;" vertex="1" parent="riMyX0msE-alBqGIp-w9-5">
          <mxGeometry y="30" width="160" height="218" as="geometry" />
        </mxCell>
        <mxCell id="riMyX0msE-alBqGIp-w9-7" value="3rd Party Airline Service (Block Seat)" style="rounded=1;whiteSpace=wrap;html=1;fillColor=#dae8fc;strokeColor=#6c8ebf;" vertex="1" parent="1">
          <mxGeometry x="20" y="450" width="120" height="60" as="geometry" />
        </mxCell>
        <mxCell id="riMyX0msE-alBqGIp-w9-8" value="" style="endArrow=classic;html=1;rounded=0;exitX=0.5;exitY=1;exitDx=0;exitDy=0;entryX=0.5;entryY=0;entryDx=0;entryDy=0;" edge="1" parent="1" source="ZmsU_r1sI4WWfwPW7TTX-5" target="riMyX0msE-alBqGIp-w9-7">
          <mxGeometry width="50" height="50" relative="1" as="geometry">
            <mxPoint x="-30" y="450" as="sourcePoint" />
            <mxPoint x="20" y="400" as="targetPoint" />
          </mxGeometry>
        </mxCell>
        <mxCell id="riMyX0msE-alBqGIp-w9-11" value="Success Callback" style="text;html=1;strokeColor=none;fillColor=none;align=center;verticalAlign=middle;whiteSpace=wrap;rounded=0;" vertex="1" parent="1">
          <mxGeometry x="80" y="591" width="90" height="30" as="geometry" />
        </mxCell>
        <mxCell id="riMyX0msE-alBqGIp-w9-13" value="Flight Bookings" style="sketch=0;outlineConnect=0;fontColor=#232F3E;gradientColor=none;fillColor=#2E27AD;strokeColor=none;dashed=0;verticalLabelPosition=bottom;verticalAlign=top;align=center;html=1;fontSize=12;fontStyle=0;aspect=fixed;pointerEvents=1;shape=mxgraph.aws4.rds_postgresql_instance;" vertex="1" parent="1">
          <mxGeometry x="250" y="342" width="78" height="78" as="geometry" />
        </mxCell>
        <mxCell id="riMyX0msE-alBqGIp-w9-14" value="" style="endArrow=classic;html=1;rounded=0;exitX=1;exitY=0.5;exitDx=0;exitDy=0;" edge="1" parent="1" source="ZmsU_r1sI4WWfwPW7TTX-5" target="riMyX0msE-alBqGIp-w9-13">
          <mxGeometry width="50" height="50" relative="1" as="geometry">
            <mxPoint x="-30" y="540" as="sourcePoint" />
            <mxPoint x="20" y="490" as="targetPoint" />
          </mxGeometry>
        </mxCell>
        <mxCell id="riMyX0msE-alBqGIp-w9-15" value="Save" style="text;html=1;strokeColor=none;fillColor=none;align=center;verticalAlign=middle;whiteSpace=wrap;rounded=0;" vertex="1" parent="1">
          <mxGeometry x="160" y="355" width="60" height="30" as="geometry" />
        </mxCell>
        <mxCell id="riMyX0msE-alBqGIp-w9-16" value="Casandra" style="strokeWidth=2;html=1;shape=mxgraph.flowchart.database;whiteSpace=wrap;fillColor=#f8cecc;strokeColor=#b85450;" vertex="1" parent="1">
          <mxGeometry x="464.5" y="490" width="71" height="80" as="geometry" />
        </mxCell>
        <mxCell id="riMyX0msE-alBqGIp-w9-17" value="Archival Service" style="rounded=1;whiteSpace=wrap;html=1;fillColor=#fff2cc;strokeColor=#d6b656;" vertex="1" parent="1">
          <mxGeometry x="440" y="351" width="120" height="60" as="geometry" />
        </mxCell>
        <mxCell id="riMyX0msE-alBqGIp-w9-18" value="" style="endArrow=classic;html=1;rounded=0;exitX=0;exitY=0.5;exitDx=0;exitDy=0;" edge="1" parent="1" source="riMyX0msE-alBqGIp-w9-17" target="riMyX0msE-alBqGIp-w9-13">
          <mxGeometry width="50" height="50" relative="1" as="geometry">
            <mxPoint x="500" y="600" as="sourcePoint" />
            <mxPoint x="550" y="550" as="targetPoint" />
          </mxGeometry>
        </mxCell>
        <mxCell id="riMyX0msE-alBqGIp-w9-19" value="&lt;div&gt;booking_index&lt;/div&gt;&lt;div&gt;partition_key: user_id&lt;/div&gt;&lt;div&gt;cluster_key: start_date&lt;br&gt;&lt;/div&gt;" style="text;html=1;strokeColor=none;fillColor=none;align=center;verticalAlign=middle;whiteSpace=wrap;rounded=0;" vertex="1" parent="1">
          <mxGeometry x="550" y="510" width="130" height="30" as="geometry" />
        </mxCell>
        <mxCell id="riMyX0msE-alBqGIp-w9-20" value="" style="endArrow=classic;html=1;rounded=0;exitX=0.5;exitY=1;exitDx=0;exitDy=0;entryX=0.5;entryY=0;entryDx=0;entryDy=0;entryPerimeter=0;" edge="1" parent="1" source="riMyX0msE-alBqGIp-w9-17" target="riMyX0msE-alBqGIp-w9-16">
          <mxGeometry width="50" height="50" relative="1" as="geometry">
            <mxPoint x="330" y="600" as="sourcePoint" />
            <mxPoint x="380" y="550" as="targetPoint" />
          </mxGeometry>
        </mxCell>
        <mxCell id="riMyX0msE-alBqGIp-w9-21" value="Bookings greater than 1 year (for example )" style="text;html=1;strokeColor=none;fillColor=none;align=center;verticalAlign=middle;whiteSpace=wrap;rounded=0;" vertex="1" parent="1">
          <mxGeometry x="340" y="330" width="100" height="30" as="geometry" />
        </mxCell>
        <mxCell id="riMyX0msE-alBqGIp-w9-22" value="&lt;div&gt;Other useful indexes&lt;/div&gt;&lt;div&gt;- Most liked destination&lt;/div&gt;&lt;div&gt;- Most Preferred Airline&lt;br&gt;&lt;/div&gt;" style="text;html=1;strokeColor=none;fillColor=none;align=center;verticalAlign=middle;whiteSpace=wrap;rounded=0;" vertex="1" parent="1">
          <mxGeometry x="406.75" y="591" width="210" height="30" as="geometry" />
        </mxCell>
      </root>
    </mxGraphModel>
  </diagram>
</mxfile>
